<svg width="720" height="420" viewBox="0 0 720 420" fill="none" xmlns="http://www.w3.org/2000/svg">
  <defs>
    <linearGradient id="bgA" x1="56" y1="52" x2="640" y2="370" gradientUnits="userSpaceOnUse">
      <stop stop-color="#0A84FF" stop-opacity="0.38"/>
      <stop offset="1" stop-color="#BF5AF2" stop-opacity="0.22"/>
    </linearGradient>
    <linearGradient id="chatA" x1="148" y1="125" x2="408" y2="286" gradientUnits="userSpaceOnUse">
      <stop stop-color="#A7D4FF"/>
      <stop offset="1" stop-color="#64D2FF"/>
    </linearGradient>
  </defs>
  <rect x="8" y="8" width="704" height="404" rx="24" fill="#08090C" stroke="rgba(255,255,255,0.18)"/>
  <rect x="28" y="28" width="664" height="364" rx="20" fill="url(#bgA)"/>
  <circle cx="112" cy="110" r="20" fill="#FF375F"/>
  <rect x="148" y="90" width="318" height="92" rx="24" fill="url(#chatA)"/>
  <rect x="180" y="116" width="248" height="10" rx="5" fill="#07121D" fill-opacity="0.52"/>
  <rect x="180" y="138" width="202" height="10" rx="5" fill="#07121D" fill-opacity="0.45"/>
  <path d="M168 184L194 182L176 210L168 184Z" fill="#7ED1FF"/>
  <rect x="248" y="220" width="360" height="110" rx="24" fill="#FFFFFF" fill-opacity="0.08" stroke="rgba(255,255,255,0.2)"/>
  <rect x="280" y="254" width="278" height="9" rx="4.5" fill="#F6FAFF" fill-opacity="0.78"/>
  <rect x="280" y="276" width="220" height="9" rx="4.5" fill="#F6FAFF" fill-opacity="0.54"/>
  <path d="M377 340C377 323 390.4 310 407.4 310C418 310 427.1 315.2 432.6 323.2C438.1 315.2 447.2 310 457.8 310C474.8 310 488.2 323 488.2 340C488.2 355.8 477.2 368 459.9 382.2C449.3 390.9 440.6 396.5 432.6 400.8C424.6 396.5 415.9 390.9 405.3 382.2C388 368 377 355.8 377 340Z" fill="#FF6B92"/>
  <rect x="70" y="308" width="132" height="40" rx="20" fill="#FF9F0A" fill-opacity="0.22" stroke="rgba(255,159,10,0.42)"/>
  <text x="136" y="333" text-anchor="middle" fill="#FFDDB0" font-family="Inter, sans-serif" font-size="16" font-weight="600">Empathy</text>
</svg>
